<svg xmlns="http://www.w3.org/2000/svg">

<symbol id="web-logo"  viewBox="0 0 24 24" fill="none" xmlns="http://www.w3.org/2000/svg">
<path opacity="0.5" d="M13 18V10V2" stroke="currentColor" stroke-width="1.5" stroke-linecap="round"/>
<circle cx="9" cy="18" r="4" stroke="currentColor" stroke-width="1.5"/>
<path d="M19 8C15.6863 8 13 5.31371 13 2" stroke="currentColor" stroke-width="1.5" stroke-linecap="round"/>
</symbol>

<symbol id="web-home" viewBox="0 0 24 24" fill="none" xmlns="http://www.w3.org/2000/svg">
<path fill-rule="evenodd" clip-rule="evenodd" d="M21.5315 11.5857L20.75 10.9605V21.25H22C22.4142 21.25 22.75 21.5858 22.75 22C22.75 22.4143 22.4142 22.75 22 22.75H2.00003C1.58581 22.75 1.25003 22.4143 1.25003 22C1.25003 21.5858 1.58581 21.25 2.00003 21.25H3.25003V10.9605L2.46855 11.5857C2.1451 11.8445 1.67313 11.792 1.41438 11.4686C1.15562 11.1451 1.20806 10.6731 1.53151 10.4144L9.65742 3.91366C11.027 2.818 12.9731 2.818 14.3426 3.91366L22.4685 10.4144C22.792 10.6731 22.8444 11.1451 22.5857 11.4686C22.3269 11.792 21.855 11.8445 21.5315 11.5857ZM12 6.75004C10.4812 6.75004 9.25003 7.98126 9.25003 9.50004C9.25003 11.0188 10.4812 12.25 12 12.25C13.5188 12.25 14.75 11.0188 14.75 9.50004C14.75 7.98126 13.5188 6.75004 12 6.75004ZM13.7459 13.3116C13.2871 13.25 12.7143 13.25 12.0494 13.25H11.9507C11.2858 13.25 10.7129 13.25 10.2542 13.3116C9.76255 13.3777 9.29128 13.5268 8.90904 13.9091C8.52679 14.2913 8.37773 14.7626 8.31163 15.2542C8.24996 15.7129 8.24999 16.2858 8.25003 16.9507L8.25003 21.25H9.75003H14.25H15.75L15.75 16.9507L15.75 16.8271C15.7498 16.2146 15.7462 15.6843 15.6884 15.2542C15.6223 14.7626 15.4733 14.2913 15.091 13.9091C14.7088 13.5268 14.2375 13.3777 13.7459 13.3116Z" fill="currentColor"/>
<g opacity="0.5">
<path fill-rule="evenodd" clip-rule="evenodd" d="M10.75 9.5C10.75 8.80964 11.3096 8.25 12 8.25C12.6904 8.25 13.25 8.80964 13.25 9.5C13.25 10.1904 12.6904 10.75 12 10.75C11.3096 10.75 10.75 10.1904 10.75 9.5Z" fill="currentColor"/>
<path fill-rule="evenodd" clip-rule="evenodd" d="M10.75 9.5C10.75 8.80964 11.3096 8.25 12 8.25C12.6904 8.25 13.25 8.80964 13.25 9.5C13.25 10.1904 12.6904 10.75 12 10.75C11.3096 10.75 10.75 10.1904 10.75 9.5Z" fill="currentColor"/>
</g>
<path opacity="0.5" d="M12.0494 13.25C12.7142 13.25 13.2871 13.2499 13.7458 13.3116C14.2375 13.3777 14.7087 13.5268 15.091 13.909C15.4732 14.2913 15.6223 14.7625 15.6884 15.2542C15.7462 15.6842 15.7498 16.2146 15.75 16.827L15.75 21.25H8.25L8.25 16.9506C8.24997 16.2858 8.24993 15.7129 8.31161 15.2542C8.37771 14.7625 8.52677 14.2913 8.90901 13.909C9.29126 13.5268 9.76252 13.3777 10.2542 13.3116C10.7129 13.2499 11.2858 13.25 11.9506 13.25H12.0494Z" fill="currentColor"/>
<path opacity="0.5" d="M16 3H18.5C18.7761 3 19 3.22386 19 3.5L19 7.63955L15.5 4.83955V3.5C15.5 3.22386 15.7239 3 16 3Z" fill="currentColor"/>
</symbol>
 
<symbol  id="web-library"
  xmlns="http://www.w3.org/2000/svg"
 
  viewBox="0 0 24 24"
  fill="none"
  stroke="currentColor"
  stroke-width="2"
  stroke-linecap="round"
  stroke-linejoin="round"
>
  <path d="M16 6l4 14" />
  <path d="M12 6v14" />
  <path d="M8 8v12" />
  <path d="M4 4v16" />
</symbol>

<symbol id="web-like" viewBox="0 0 24 24" fill="none" xmlns="http://www.w3.org/2000/svg">
<path fill-rule="evenodd" clip-rule="evenodd" d="M12 6.00019C10.2006 3.90317 7.19377 3.2551 4.93923 5.17534C2.68468 7.09558 2.36727 10.3061 4.13778 12.5772C5.60984 14.4654 10.0648 18.4479 11.5249 19.7369C11.6882 19.8811 11.7699 19.9532 11.8652 19.9815C11.9483 20.0062 12.0393 20.0062 12.1225 19.9815C12.2178 19.9532 12.2994 19.8811 12.4628 19.7369C13.9229 18.4479 18.3778 14.4654 19.8499 12.5772C21.6204 10.3061 21.3417 7.07538 19.0484 5.17534C16.7551 3.2753 13.7994 3.90317 12 6.00019Z" stroke="currentColor" stroke-width="2" stroke-linecap="round" stroke-linejoin="round"/>
</symbol>



<symbol id="web-featured"  viewBox="0 0 24 24" fill="none" xmlns="http://www.w3.org/2000/svg">
<path d="M13 8.92226L7.92226 3.84453C6.79623 2.71849 4.97056 2.71849 3.84453 3.84453C2.71849 4.97056 2.71849 6.79623 3.84453 7.92226L16.0777 20.1555C17.2038 21.2815 19.0294 21.2815 20.1555 20.1555C21.2815 19.0294 21.2815 17.2038 20.1555 16.0777L17.0777 13" stroke="currentColor" stroke-width="1.5" stroke-linecap="round"/>
<path d="M6 10L10 6" stroke="currentColor" stroke-width="1.5" stroke-linecap="round"/>
<path d="M16.1 2.30719C16.261 1.8976 16.8385 1.8976 16.9994 2.30719L17.4298 3.40247C17.479 3.52752 17.5776 3.62651 17.7022 3.67583L18.7934 4.1078C19.2015 4.26934 19.2015 4.849 18.7934 5.01054L17.7022 5.44252C17.5776 5.49184 17.479 5.59082 17.4298 5.71587L16.9995 6.81115C16.8385 7.22074 16.261 7.22074 16.1 6.81116L15.6697 5.71587C15.6205 5.59082 15.5219 5.49184 15.3973 5.44252L14.3061 5.01054C13.898 4.849 13.898 4.26934 14.3061 4.1078L15.3973 3.67583C15.5219 3.62651 15.6205 3.52752 15.6697 3.40247L16.1 2.30719Z" stroke="currentColor"/>
<path d="M19.9672 9.12945C20.1281 8.71987 20.7057 8.71987 20.8666 9.12945L21.0235 9.5288C21.0727 9.65385 21.1713 9.75284 21.2959 9.80215L21.6937 9.95965C22.1018 10.1212 22.1018 10.7009 21.6937 10.8624L21.2959 11.0199C21.1713 11.0692 21.0727 11.1682 21.0235 11.2932L20.8666 11.6926C20.7057 12.1022 20.1281 12.1022 19.9672 11.6926L19.8103 11.2932C19.7611 11.1682 19.6625 11.0692 19.5379 11.0199L19.14 10.8624C18.732 10.7009 18.732 10.1212 19.14 9.95965L19.5379 9.80215C19.6625 9.75284 19.7611 9.65385 19.8103 9.5288L19.9672 9.12945Z" stroke="currentColor"/>
<path d="M5.1332 15.3072C5.29414 14.8976 5.87167 14.8976 6.03261 15.3072L6.18953 15.7065C6.23867 15.8316 6.33729 15.9306 6.46188 15.9799L6.85975 16.1374C7.26783 16.2989 7.26783 16.8786 6.85975 17.0401L6.46188 17.1976C6.33729 17.2469 6.23867 17.3459 6.18953 17.471L6.03261 17.8703C5.87167 18.2799 5.29414 18.2799 5.1332 17.8703L4.97628 17.471C4.92714 17.3459 4.82852 17.2469 4.70393 17.1976L4.30606 17.0401C3.89798 16.8786 3.89798 16.2989 4.30606 16.1374L4.70393 15.9799C4.82852 15.9306 4.92714 15.8316 4.97628 15.7065L5.1332 15.3072Z" stroke="currentColor"/>
</symbol>


<symbol id="web-search" viewBox="0 0 24 24" fill="none" xmlns="http://www.w3.org/2000/svg">
<path d="M15.7955 15.8111L21 21M18 10.5C18 14.6421 14.6421 18 10.5 18C6.35786 18 3 14.6421 3 10.5C3 6.35786 6.35786 3 10.5 3C14.6421 3 18 6.35786 18 10.5Z" stroke="currentColor" stroke-width="2" stroke-linecap="round" stroke-linejoin="round"/>
</symbol>

<symbol id="quatation-icon" xmlns="http://www.w3.org/2000/svg"  viewBox="0 0 24 24"><path fill="none" stroke="currentColor" stroke-linecap="round" stroke-linejoin="round" stroke-width="1.5" d="M16.25 15.5c-1.837-.794-2.5-1.5-2.5-3.5S15 8.75 17 8.75S20.25 10 20.25 12c0 3.5-1 4.75-5 7.25c1-1.75 1-2.25 1-3.75m-10 0c-1.837-.794-2.5-1.5-2.5-3.5S5 8.75 7 8.75S10.25 10 10.25 12c0 3.5-1 4.75-5 7.25c1-1.75 1-2.25 1-3.75"/></symbol>

</svg>